<?xml version="1.0" standalone="no"?>
<!DOCTYPE svg PUBLIC "-//W3C//DTD SVG 1.1//EN" "http://www.w3.org/Graphics/SVG/1.1/DTD/svg11.dtd" >
<svg xmlns="http://www.w3.org/2000/svg">
<metadata>
Created by FontForge 20120731 at Thu Apr 13 15:18:00 2017
 By admin
</metadata>
<defs>
<font id="iconfont" horiz-adv-x="1024" >
  <font-face 
    font-family="iconfont"
    font-weight="500"
    font-stretch="normal"
    units-per-em="1024"
    panose-1="2 0 6 3 0 0 0 0 0 0"
    ascent="896"
    descent="-128"
    x-height="792"
    bbox="0 -128 1025 896"
    underline-thickness="0"
    underline-position="0"
    unicode-range="U+0078-E677"
  />
<missing-glyph 
 />
    <glyph glyph-name=".notdef" 
 />
    <glyph glyph-name=".notdef" 
 />
    <glyph glyph-name=".null" horiz-adv-x="0" 
 />
    <glyph glyph-name="nonmarkingreturn" horiz-adv-x="341" 
 />
    <glyph glyph-name="x" unicode="x" horiz-adv-x="1001" 
d="M281 543q-27 -1 -53 -1h-83q-18 0 -36.5 -6t-32.5 -18.5t-23 -32t-9 -45.5v-76h912v41q0 16 -0.5 30t-0.5 18q0 13 -5 29t-17 29.5t-31.5 22.5t-49.5 9h-133v-97h-438v97zM955 310v-52q0 -23 0.5 -52t0.5 -58t-10.5 -47.5t-26 -30t-33 -16t-31.5 -4.5q-14 -1 -29.5 -0.5
t-29.5 0.5h-32l-45 128h-439l-44 -128h-29h-34q-20 0 -45 1q-25 0 -41 9.5t-25.5 23t-13.5 29.5t-4 30v167h911zM163 247q-12 0 -21 -8.5t-9 -21.5t9 -21.5t21 -8.5q13 0 22 8.5t9 21.5t-9 21.5t-22 8.5zM316 123q-8 -26 -14 -48q-5 -19 -10.5 -37t-7.5 -25t-3 -15t1 -14.5
t9.5 -10.5t21.5 -4h37h67h81h80h64h36q23 0 34 12t2 38q-5 13 -9.5 30.5t-9.5 34.5q-5 19 -11 39h-368zM336 498v228q0 11 2.5 23t10 21.5t20.5 15.5t34 6h188q31 0 51.5 -14.5t20.5 -52.5v-227h-327z" />
    <glyph glyph-name="duigou" unicode="&#xe626;" 
d="M907 691q-19 0 -33 -14v0l-491 -491l-230 231v0q-14 15 -35 15q-19 0 -32 -13.5t-13 -32.5q0 -20 15 -34v0l262 -263v0q14 -14 33 -14t33 14l522 523q14 14 14 33t-13 32.5t-32 13.5z" />
    <glyph glyph-name="aliyun02" unicode="&#xe62f;" 
d="M512 841q-93 0 -177.5 -36t-146 -97.5t-97.5 -146t-36 -177.5t36 -177.5t97.5 -146t146 -97.5t177.5 -36t177.5 36t146 97.5t97.5 146t36 177.5t-36 177.5t-97.5 146t-146 97.5t-177.5 36zM353 640q33 17 58 12.5t41 -18.5l15 -14q28 -22 49.5 -21t35.5 13l13 12
q13 15 28.5 21.5t29.5 5.5t25.5 -4t18.5 -7l7 -4q16 -16 22.5 -32t4.5 -28t-6.5 -22t-8.5 -15l-5 -6q-14 -14 -30 -19t-29.5 -2.5t-25 7.5t-18.5 10l-6 4q-12 14 -25 21t-24.5 8t-22.5 -1t-19.5 -7t-15.5 -9.5t-10 -7.5l-4 -4q-12 -13 -27 -18.5t-28.5 -3.5t-24.5 5.5
t-18 8.5l-6 4q-15 18 -19.5 36.5t-1 31.5t9.5 23t12 15zM697 149q-13 -21 -33 -29t-33 -5l-14 2q-14 2 -25 10.5t-16 18t-7.5 21t-3 16t-0.5 7.5q-3 14 -9.5 16.5t-10.5 -2.5l-5 -5l-100 -64q-33 -20 -55.5 -17t-33.5 10t-11 10q-17 21 -20 42t4.5 36t17.5 26.5t18.5 17
l8.5 5.5q6 2 20.5 11t25.5 17l11 8q56 45 29 60l-4 2q-26 12 -48.5 8.5t-38.5 -13.5l-15 -11q-14 -20 -37 -27.5t-38 -4.5l-16 2q-21 8 -32 21.5t-12.5 27t0 26t4.5 20.5l3 8q51 65 112 20q14 -9 14 -11q14 -14 31.5 -19t32.5 -3t27.5 6.5t19.5 8.5l7 4q28 18 49 15.5
t34 -14.5l12 -12q13 -28 6.5 -48t-19.5 -31l-14 -12q-6 -4 -25 -21.5t-34 -33.5l-16 -15q-11 -20 1 -28.5t29 -7.5l18 2q64 5 66 40q0 21 8.5 26.5t16.5 1.5l9 -5q11 0 28 -7.5t29 -14.5l11 -7q17 -14 26 -29.5t9 -28.5t-2.5 -24t-6.5 -17zM783 331q-1 -1 -3.5 -3t-11 -6
t-18.5 -5.5t-25.5 1t-32.5 11.5q-3 1 -7.5 4.5t-16 12t-20 16.5t-15 16.5t-4.5 13.5l68 50q2 2 6 4t16.5 5.5t24 3.5t26.5 -5.5t27 -18.5v0q25 -38 9 -73q-7 -15 -23 -27z" />
    <glyph glyph-name="baiduyun02" unicode="&#xe631;" 
d="M512 841q-93 0 -177.5 -36t-146 -97.5t-97.5 -146t-36 -177.5t36 -177.5t97.5 -146t146 -97.5t177.5 -36t177.5 36t146 97.5t97.5 146t36 177.5t-36 177.5t-97.5 146t-146 97.5t-177.5 36zM257 226l-3 269l104 -64l3 -149l123 -68l3 -118zM507 546l-119 -71l-105 64
l226 134l226 -128l-107 -66zM540 95l-3 117l126 75l-3 149l107 66l2 -271z" />
    <glyph glyph-name="yamaxun02" unicode="&#xe633;" 
d="M512 841q-93 0 -177.5 -36t-146 -97.5t-97.5 -146t-36 -177.5t36 -177.5t97.5 -146t146 -97.5t177.5 -36t177.5 36t146 97.5t97.5 146t36 177.5t-36 177.5t-97.5 146t-146 97.5t-177.5 36zM502 140l-219 54v316l219 -54v-316zM287 537l232 76l223 -76l-225 -62zM747 194
l-220 -54v316l220 54v-316z" />
    <glyph glyph-name="azure02" unicode="&#xe634;" 
d="M512 841q-93 0 -177.5 -36t-146 -97.5t-97.5 -146t-36 -177.5t36 -177.5t97.5 -146t146 -97.5t177.5 -36t177.5 36t146 97.5t97.5 146t36 177.5t-36 177.5t-97.5 146t-146 97.5t-177.5 36zM368 612q37 15 72 18.5t57.5 -2.5t39.5 -14.5t25 -15.5l8 -8l-65 -192
q-28 24 -58.5 35t-55 9.5t-44.5 -6.5t-31 -11l-11 -6zM230 201l62 193q38 16 72.5 19t57.5 -3t40 -14.5t25 -15.5l7 -8l-64 -192q-28 24 -59 35t-55 9.5t-44 -6.5t-31 -11zM656 142q-37 -15 -72 -18.5t-57.5 2.5t-39.5 15t-25 16l-8 7l65 192q28 -24 58.5 -35t55 -9.5
t44.5 6.5t31 11l11 6zM732 360q-28 -11 -54 -16t-45.5 -3.5t-37 5.5t-29 10.5t-20 12t-12.5 9.5l-4 4l64 192q28 -24 59 -35t55 -9.5t44 6.5t31 11l11 6z" />
    <glyph glyph-name="huaweiyun02" unicode="&#xe635;" 
d="M512 841q-93 0 -177.5 -36t-146 -97.5t-97.5 -146t-36 -177.5t36 -177.5t97.5 -146t146 -97.5t177.5 -36t177.5 36t146 97.5t97.5 146t36 177.5t-36 177.5t-97.5 146t-146 97.5t-177.5 36zM451 214q-72 -52 -99 -59q-25 -6 -49.5 10.5t-41.5 45.5l189 7v0q2 0 2 -2
q0 -1 -1 -2v0zM455 233q-1 -1 -2 -1q-138 -1 -141 -1q-18 1 -36 8q-5 2 -12 5.5t-23 17.5t-25 34q0 1 -1.5 3.5t-4 11.5t-3.5 18t-0.5 22t4.5 26q161 -86 243 -141v0q3 0 1 -3zM470 257l-1 -2q0 -1 -2 -1q-136 68 -186 116l-8 8t-13.5 21t-9.5 33q-1 14 3.5 29.5t12 28
t15.5 22.5t13 15.5t6 5.5q11 -13 29 -37t63.5 -96.5t77.5 -142.5v0zM496 272v0v0q0 -2 -2 -2q-1 -1 -2 1q-99 142 -116 220q-1 4 -2 9.5t-2.5 22t3.5 28.5q1 2 2 5t6 11.5t11 15.5t17.5 14.5t25.5 11.5q22 5 30 6q1 0 6 -10t12.5 -33t12 -62t5.5 -98t-7 -140zM530 270
q-2 0 -2 2v0q-7 81 -7 140t5.5 98t12.5 62t12 33l6 10l29 -6q23 -6 38.5 -20.5t19.5 -25.5l5 -12q3 -13 3 -26.5t-2 -23.5l-2 -10q-17 -78 -116 -220v0zM555 255q-1 0 -1 3v0q32 70 74.5 138.5t69.5 102.5l26 34q6 -5 15 -14.5t22.5 -36.5t12.5 -50q-1 -17 -8.5 -32.5
t-15.5 -22.5l-7 -7q-50 -48 -186 -115h-2zM672 155q-29 8 -99 59v0l-1 2l2 2v0v0l189 -7q-12 -20 -26 -33.5t-25 -18t-20.5 -6t-14.5 0.5zM808 297q-9 -20 -24 -34.5t-26 -18.5l-10 -5q-8 -3 -16 -4.5t-12 -2.5h-5q-2 -1 -144 0v0l-2 1l1 3q37 25 97.5 60t102.5 58l43 23
q14 -42 -5 -80v0z" />
    <glyph glyph-name="tubiao_xia-29" unicode="&#xe62d;" 
d="M796 555h-568l262 -342z" />
    <glyph glyph-name="gongxiang" unicode="&#xe638;" 
d="M591 44q-11 -5 -26 -13.5t-23.5 -12.5t-21.5 -8t-29 -4t-37 4q-11 3 -23.5 11.5t-20 15.5l-7.5 7l-342 86q-5 20 0 34q2 5 11 9.5t15.5 6t8.5 1.5l324 -85q8 -14 34 -17q11 -3 28 -3t29 1l11 2l359 153q0 2 -0.5 6t-3 13t-7 16t-15.5 12t-26 4q-28 -2 -75 -19t-80 -33
l-32 -16q-1 -1 -2 -3.5t-6 -9.5t-12 -13.5t-20 -13.5t-29 -11q-19 -6 -48 -6t-54 6q-15 4 -88 14.5t-100 19.5q-9 3 -13 7.5t-4 6.5v3q0 1 -0.5 3t0.5 7.5t5.5 10t16 8.5t29.5 5q29 2 104 -15.5t101 -18.5q22 -1 35.5 11.5t15.5 22.5q5 19 -59.5 37t-133.5 26.5t-80 4.5
q-8 -2 -39 -37q-3 -3 -10 -6.5t-13 -5.5l-6 -2q-60 12 -136 34q-29 8 -32 37q-2 25 19 31q5 2 13 1q20 -3 50 -11.5t49 -15.5l20 -7q1 1 3 4.5t9.5 11.5t16.5 14.5t24 12.5t32 8q40 3 130 -15t109 -19q18 -2 33.5 -7.5t25 -13t16 -14.5t8.5 -12l3 -5q22 -8 51 0q9 3 29.5 9
t34.5 10.5t35 9.5t37.5 7t35 2t33.5 -3q21 -6 37.5 -20.5t25 -30t14 -32.5t7 -26t1.5 -11q-268 -116 -375 -171zM864 505h-734q-14 0 -24 10t-10 24t10 24t24 10h734q14 0 24 -10t10 -24t-10 -24t-24 -10zM864 693h-717q-14 0 -24 10t-10 24t10 24t24 10h717q14 0 24 -10
t10 -24t-10 -24t-24 -10z" />
    <glyph glyph-name="wode" unicode="&#xe639;" 
d="M942 -128h-860q-34 0 -58 24t-24 58v860q0 34 24 58t58 24h860q34 0 58 -24t24 -58v-860q0 -34 -24 -58t-58 -24zM881 445h-308v308h-122v-308h-308v-122h308v-308h122v308h308v122z" />
    <glyph glyph-name="fenxiang" unicode="&#xe63a;" 
d="M742 285q-42 0 -79 -20.5t-59 -54.5l-176 101q19 34 19 73q0 22 -8 48l182 104q50 -53 121 -53q68 0 116 48t48 116t-48 116t-115.5 48t-115.5 -48t-48 -116q0 -17 6 -48l-182 -104q-50 53 -120 53q-68 0 -116 -48t-48 -116t48 -116t116 -48q54 0 99 34v-1l198 -113
q0 -3 -0.5 -9t-0.5 -8q0 -68 48 -116t115.5 -48t115.5 48t48 116q0 67 -48 114.5t-116 47.5zM742 746q41 0 70 -29t29 -70t-29 -70t-70 -29t-70 29t-29 70t29 70t70 29zM282 285q-41 0 -70 29t-29 70t29 70t70 29t70 -29t29 -70t-29 -70t-70 -29zM742 22q-41 0 -70 29
t-29 70t29 70t70 29t70 -29t29 -70q-1 -41 -29.5 -70t-69.5 -29z" />
    <glyph glyph-name="paixu" unicode="&#xe63b;" 
d="M785 521q0 113 -79.5 193t-193.5 80t-193.5 -80t-79.5 -193q0 -77 37.5 -140t102.5 -98q-88 -35 -148.5 -106.5t-78.5 -166.5q-3 -12 4 -23t20 -13h7q25 0 30 24q19 107 102.5 177t193.5 72h6q112 0 191 80t79 194zM300 521q0 88 62 149.5t150 61.5t150 -61.5t62 -149.5
q0 -87 -61.5 -149t-148.5 -63h-9q-86 1 -145.5 62.5t-59.5 149.5zM712 244q-12 7 -24.5 5t-18.5 -13q-7 -12 -5 -24.5t14 -18.5q109 -75 133 -195q5 -24 30 -24h7q12 3 19.5 13.5t4.5 22.5q-13 70 -54.5 130t-105.5 104z" />
    <glyph glyph-name="wenjian" unicode="&#xe63c;" 
d="M879 -26h-734q-14 0 -24 10t-10 25v290q0 14 10 24t24 10h51v256q0 14 10 24t24 10h137v136q0 15 10 25t24 10h273l171 -173v-288h34q14 0 24 -10t10 -24v-290q0 -15 -10 -25t-24 -10zM265 555v-222h102v222h-102zM777 589h-137l-3 136h-202v-392h342v256zM845 265h-666
v-222h666v222z" />
    <glyph glyph-name="sousuo" unicode="&#xe63d;" 
d="M982 5l-198 197q82 112 82 249q0 115 -56.5 212t-153.5 153.5t-211.5 56.5t-211.5 -56.5t-153.5 -153.5t-56.5 -211.5t56.5 -211.5t153.5 -153.5t212 -56.5q137 0 249 82l197 -198q19 -19 44.5 -19t44.5 19q21 19 21 45.5t-19 45.5zM128 451.5q0 85.5 42.5 159t116 116.5
t160.5 43q86 0 159.5 -42.5t116.5 -116t43 -160.5q0 -85 -42.5 -158.5t-116 -116.5t-160.5 -43t-160.5 43t-116 116.5t-42.5 159z" />
    <glyph glyph-name="xiala" unicode="&#xe63e;" 
d="M919.5 602.5q-10.5 10.5 -26 10.5t-27.5 -10l-356 -361l-354 363q-11 11 -26 11t-25.5 -10.5t-10.5 -27t11 -26.5l372 -382q1 -1 3.5 -4.5t3.5 -4.5q9 -10 19 -10q21 -4 35 10q4 4 7 9l377 379q9 12 8.5 27.5t-11 26z" />
    <glyph glyph-name="tianjia" unicode="&#xe63f;" 
d="M778 -56v839q0 17 12 29t29 12t29 -12t12 -29v-573h144zM655 26h-594q-16 0 -28.5 12t-12.5 28.5t12.5 29t28.5 12.5h594q17 0 29 -12.5t12 -29t-12 -28.5t-29 -12zM655 333h-594q-16 0 -28.5 12t-12.5 29t12.5 29t28.5 12h594q17 0 29 -12t12 -29t-12 -29t-29 -12z
M655 640h-594q-16 0 -28.5 12t-12.5 29t12.5 29t28.5 12h594q17 0 29 -12t12 -29t-12 -29t-29 -12z" />
    <glyph glyph-name="tubiao_shangchuanshipin" unicode="&#xe646;" 
d="M512 384zM0 384q0 -139 68.5 -257t186.5 -186.5t257 -68.5t257 68.5t186.5 186.5t68.5 257t-68.5 257t-186.5 186.5t-257 68.5t-257 -68.5t-186.5 -186.5t-68.5 -257zM762 159l-24 -25h-452l-24 25v450l24 25h445l31 -25h-175v-50h51v50h24v-50h50v50h50v-450zM587 159
h51v50h-51v-50zM487 159h75v50h-75v-50zM387 159h75v50h-75v-50zM312 159h50v50h-50v-50zM362 609h-50v-50h50v50v0zM462 609h-76v-50h76v50zM562 609h-75v-50h75v50zM712 534h-400v-300h400v300zM712 209h-50v-50h50v50zM437 484l175 -100l-175 -100v200z" />
    <glyph glyph-name="tubiao_xinjianwenjianjia" unicode="&#xe647;" 
d="M512 384zM0 384q0 -139 68.5 -257t186.5 -186.5t257 -68.5t257 68.5t186.5 186.5t68.5 257t-68.5 257t-186.5 186.5t-257 68.5t-257 -68.5t-186.5 -186.5t-68.5 -257zM738 146h-25v25v25h49v-25q0 -10 -7 -17.5t-17 -7.5zM662 146h-50v100h-100v50h100v101h50v-100h100
v-50h-100v-101zM712 522h-400v-325h250v-50h-276q-10 0 -17 7.5t-7 17.5v425q0 10 7 17.5t17 7.5h144l28 -50h279q10 0 17.5 -7.5t7.5 -17.5v-200h-50v175z" />
    <glyph glyph-name="tubiao_xinjianbiji" unicode="&#xe648;" 
d="M0 384q0 -139 68.5 -257t186.5 -186.5t257 -68.5t257 68.5t186.5 186.5t68.5 257t-68.5 257t-186.5 186.5t-257 68.5t-257 -68.5t-186.5 -186.5t-68.5 -257zM762 159l-27 -25h-448l-25 25v450l25 25h325v-50h-300v-400h400v300h50v-325zM362 434h300v-25h-300v25z
M362 384h300v-25h-300v25zM662 259h-300v25h300v-25v0zM362 334h300v-24h-300v24zM562 534v-25h-200v25h200zM662 459h-300v25h300v-25v0zM637 634l125 -125h-125v125z" />
    <glyph glyph-name="yidong" unicode="&#xe64a;" 
d="M939 -51h-854q-28 0 -48 20t-20 48v734q0 28 20 48t48 20h359l85 -119h410q28 0 48 -20t20 -49v-614q0 -28 -20 -48t-48 -20zM939 614q0 17 -17 17h-444l-85 120h-291q-17 0 -17 -17v-700q0 -17 17 -17h820q17 0 17 17v580zM770 295l-132 -133q-9 -9 -23 -8.5t-24.5 10.5
t-10.5 24t9 24l78 78h-394q-14 0 -24 10t-10 24t10 24t24 10h399l-75 75q-9 9 -8.5 22.5t10.5 24t23.5 10.5t22.5 -9l135 -135q9 -8 8.5 -22t-10.5 -24q-1 -1 -8 -5z" />
    <glyph glyph-name="shanchu" unicode="&#xe64b;" 
d="M930 674h-256q-3 0 -14 4l-3 -4l-68 85h-154l-68 -85l-3 4q-11 -4 -14 -4h-256q-14 0 -24 10t-10 24t10 24t24 10h239l85 86h205l85 -86h222q14 0 24 -10t10 -24t-10 -24t-24 -10zM333 111v427q0 14 10 24t24 10t24 -10t10 -24v-427q0 -14 -10 -24t-24 -10t-24 10t-10 24
zM486 111v427q0 14 10 24t24.5 10t24.5 -10t10 -24v-427q0 -14 -10 -24t-24.5 -10t-24.5 10t-10 24zM640 111v427q0 14 10 24t24 10t24 -10t10 -24v-427q0 -14 -10 -24t-24 -10t-24 10t-10 24zM179.5 606q20.5 0 28.5 -17h5v-563q0 -8 5 -12.5t12 -4.5h564q17 0 17 17v563h5
q8 17 28.5 17t29.5 -17h5v-580q0 -29 -20 -49t-48 -20h-598q-28 0 -48 20t-20 49v580h5q9 17 29.5 17z" />
    <glyph glyph-name="fenxiang1" unicode="&#xe64c;" 
d="M935 660l-150 -129q-13 -10 -28 -10t-25 10q-9 10 -7 25.5t14 25.5l92 80q-185 -33 -312 -136q-43 -35 -81 -82.5t-62 -90.5t-42 -82.5t-26 -61.5t-8 -23h-1q-9 -18 -26 -15q-10 1 -17 9t-7 18q0 2 1 4.5t1 4.5h-2q3 8 8 23t23.5 58.5t39.5 83.5t56.5 89.5t74.5 86.5
q57 54 125.5 92.5t113.5 53t88 21.5l-73 33q-12 6 -17.5 19t0.5 27q5 12 20 16.5t29 -1.5l181 -79q5 -1 14 -10q7 -3 10 -7q10 -11 8 -26t-15 -27zM415 739h-256q-8 0 -12.5 -4.5t-4.5 -12.5v-683q0 -17 17 -17h682q17 0 17 17v342q0 14 10.5 24t24.5 10t24 -10t10 -24v-359
q0 -28 -20 -48t-49 -20h-716q-29 0 -49 20t-20 48v717q0 28 20 48t49 20h273q14 0 24 -10t10 -24t-10 -24t-24 -10z" />
    <glyph glyph-name="xiazai" unicode="&#xe64d;" 
d="M887 -51h-750q-29 0 -49 20t-20 48v683q0 28 20 48t49 20h102q14 0 24 -10t10 -24t-10 -24t-24 -10h-85q-8 0 -12.5 -5t-4.5 -12v-649q0 -17 17 -17h716q17 0 17 17v649q0 17 -17 17h-68q-14 0 -24 10t-10 24t10 24t24 10h85q29 0 49 -20t20 -48v-683q0 -28 -20 -48
t-49 -20zM761 416l-217 -216q-4 -5 -17 -9h-1h-2q-7 -3 -12 -3q-16 0 -24 10l-222 220q-10 10 -10 24.5t10 25t24.5 10.5t25.5 -10l162 -163v480q0 14 10 24t24 10t24 -10t10 -24v-486l167 167q11 10 24.5 10t23.5 -10t10 -24.5t-10 -25.5z" />
    <glyph glyph-name="zhongmingming" unicode="&#xe64e;" 
d="M870 -43h-716q-29 0 -49 20t-20 49v716q0 29 20 49t49 20h716q29 0 49 -20t20 -49v-716q0 -29 -20 -49t-49 -20zM870 725q0 17 -17 17h-682q-17 0 -17 -17v-682q0 -8 4.5 -12.5t12.5 -4.5h682q17 0 17 17v682zM751 213q-14 0 -24 10t-10 24.5t10 24.5t24 10t24 -10
t10 -24.5t-10 -24.5t-24 -10zM631.5 213q-14.5 0 -24.5 10t-10 24.5t10 24.5t24.5 10t24.5 -10t10 -24.5t-10 -24.5t-24.5 -10zM512 213q-14 0 -24 10t-10 24.5t10 24.5t24 10t24 -10t10 -24.5t-10 -24.5t-24 -10zM410 213h-137q-17 0 -17 17v35q0 7 4.5 12t12.5 5h34v221
h-34q-17 0 -17 18v34q0 17 17 17h137q17 0 17 -17v-34q0 -8 -5 -13t-12 -5h-35v-221h35q17 0 17 -17v-35q0 -17 -17 -17z" />
    <glyph glyph-name="gouxuan" unicode="&#xe64f;" 
d="M0 896v-1024h1024v1024h-1024zM410 43l-342 307l103 102l239 -239l443 478l103 -102z" />
    <glyph glyph-name="cloudfogshanchu" unicode="&#xe651;" 
d="M512 -101q-98 0 -187.5 38.5t-155 104t-104 155t-38.5 187.5t38.5 187.5t104 155t155 104t187.5 38.5t187.5 -38.5t155 -103t104 -154.5t38.5 -189t-38.5 -189t-104 -154.5t-155 -103t-187.5 -38.5zM703 517q8 8 6 21.5t-13 26.5h-3q-10 10 -25 12t-23 -5l-136 -133
l-147 143q-8 8 -23 5.5t-25 -12.5q-10 -13 -12 -26.5t5 -21.5l147 -143l-143 -140q-8 -8 -6 -21.5t12 -26.5h4q10 -10 25 -12t23 5l143 140l137 -136q7 -8 22 -6t25 13l4 3q12 10 13.5 25.5t-6.5 22.5l-137 136z" />
    <glyph glyph-name="cloudfog-shouqi-" unicode="&#xe652;" 
d="M0 896v-1024h1024v1024h-1024zM956 -60h-888v888h888v-888zM171 452h682v-136h-682v136z" />
    <glyph glyph-name="cloudfog-dakai" unicode="&#xe653;" 
d="M0 896v-1024h1024v1024h-1024zM956 -60h-888v888h888v-888zM853 452h-273v273h-136v-273h-273v-136h273v-273h136v273h273v136z" />
    <glyph glyph-name="cloudfog-caidan" unicode="&#xe650;" 
d="M93 687h838q19 0 32.5 13.5t13.5 32.5t-13.5 33t-32.5 14h-838q-19 0 -32.5 -14t-13.5 -33t13.5 -32.5t32.5 -13.5zM931 431h-838q-19 0 -32.5 -14t-13.5 -33t13.5 -33t32.5 -14h838q19 0 32.5 14t13.5 33t-13.5 33t-32.5 14zM931 81h-838q-19 0 -32.5 -13.5t-13.5 -32.5
t13.5 -33t32.5 -14h838q19 0 32.5 14t13.5 33t-13.5 32.5t-32.5 13.5z" />
    <glyph glyph-name="cloudfog-caozuoduilie" unicode="&#xe654;" 
d="M393 563h494q15 0 25 10t10 24t-10 24t-25 10h-494q-15 0 -25 -10t-10 -24t10 -24t25 -10zM256 717q-22 0 -31 -21q-7 -2 -13 -12l-106 -155q-8 -11 -5.5 -25.5t14 -22.5t26 -5.5t21.5 14.5l58 87v-493q0 -14 10 -24.5t24 -10.5t24 10.5t10 24.5v597q2 15 -8 25.5
t-24 10.5zM887 410h-494q-15 0 -25 -10t-10 -24.5t10 -24.5t25 -10h494q15 0 25 10t10 24.5t-10 24.5t-25 10zM887 188h-494q-15 0 -25 -10t-10 -24t10 -24.5t25 -10.5h494q15 0 25 10.5t10 24.5t-10 24t-25 10z" />
    <glyph glyph-name="cloudfog-quanxianguanli" unicode="&#xe655;" 
d="M638 96q-5 0 -8 -2v2h-461q-17 0 -17 17v546q0 17 17 17h666q17 0 17 -17v-290h1q-1 -4 -1 -9q0 -10 7.5 -17.5t17.5 -7.5t18 7.5t8 17.5q0 5 -2 9h2v290q0 28 -20 48t-48 20h-666q-28 0 -48 -20t-20 -48v-546q0 -29 20 -49t48 -20h461v2q3 -2 8 -2q11 0 18.5 8t7.5 18
t-7.5 18t-18.5 8zM775 556h-137q-10 0 -17.5 -7.5t-7.5 -17.5t7.5 -18t17.5 -8h137q10 0 17.5 8t7.5 18t-7.5 17.5t-17.5 7.5zM775 454h-137q-10 0 -17.5 -7.5t-7.5 -18t7.5 -18t17.5 -7.5h137q10 0 17.5 7.5t7.5 18t-7.5 18t-17.5 7.5zM889 171v25l31 43l-19 31l-51 -9
l-22 12l-21 48l-37 -2l-19 -49l-22 -14l-53 5l-17 -32l34 -40v-25l-31 -41l19 -31l51 9l22 -12l21 -48l37 2l19 49l22 14l53 -5l17 32zM858 133l-30 4l-12 -9l-10 -29h-23l-12 27l-13 7l-31 -5l-10 19l19 24v15l-21 24l10 19l31 -4l14 9l10 29h22l12 -27l14 -7l30 5l12 -19
l-18 -24v-15l20 -24zM474 367q53 44 53 113q0 60 -42.5 102.5t-102.5 42.5t-102.5 -42.5t-42.5 -102.5q0 -73 60 -118q-50 -26 -80.5 -74.5t-30.5 -106.5h2q-2 -4 -2 -9q0 -10 7.5 -17.5t18 -7.5t18 7.5t7.5 17.5q0 5 -1 9h1q0 64 45 109t109 45t108.5 -45t44.5 -109h2
q-2 -4 -2 -9q0 -10 8 -17.5t18 -7.5t18 7.5t8 17.5q0 5 -2 9h2q0 62 -33.5 111.5t-88.5 74.5zM382.5 386q-38.5 0 -66.5 27.5t-28 66t28 66t66.5 27.5t66 -27.5t27.5 -66t-27.5 -66t-66 -27.5z" />
    <glyph glyph-name="cloudfog-yunpeizhi" unicode="&#xe656;" 
d="M234 515v82h606v-99h-132q-17 0 -24.5 -12t0 -24.5t24.5 -12.5h132v-33h1q-1 -3 -1 -8q0 -10 6.5 -17t17 -7t17 7t6.5 17q0 5 -1 8h1v313q0 20 -14.5 34.5t-34.5 14.5h-604q-21 0 -35.5 -14.5t-14.5 -34.5v-214q0 -18 12.5 -25.5t25 0t12.5 25.5zM234 712q0 6 4.5 11.5
t12.5 5.5h573q7 0 12 -5t5 -12v-65h-607v65zM717 401q-14 0 -38 -3q-22 59 -74.5 96.5t-118.5 37.5q-82 0 -141.5 -57t-62.5 -139h-9q-71 -1 -121 -51.5t-50 -122.5q0 -70 50.5 -120.5t122.5 -50.5h450q82 3 139.5 62.5t57.5 142.5q0 85 -60.5 145t-144.5 60zM725 39h-442
q-47 0 -89 42t-42 90q0 46 41 80t90 34h5q16 1 27.5 9t14.5 16l3 7q-1 70 49 118.5t113 45.5q40 -1 75 -28.5t56 -66.5l5 -5q1 -19 16.5 -27.5t30.5 -6.5l15 1h32q58 0 102.5 -44.5t44.5 -102.5q0 -54 -46 -106t-101 -56z" />
    <glyph glyph-name="cloudfog-caozuorizhi" unicode="&#xe657;" 
d="M691 171h-358q-10 0 -18 -8t-8 -18t8 -18t18 -8h358q10 0 18 8t8 18t-8 18t-18 8zM333 580h136q11 0 18.5 8t7.5 18t-7.5 17.5t-18.5 7.5h-136q-10 0 -18 -7.5t-8 -17.5t8 -18t18 -8zM785 614l-154 154h-375q-28 0 -48 -20t-20 -48v-632q0 -28 20 -48t48 -20h512
q28 0 48 20t20 48v495zM614 700l139 -137h-139v137zM785 68q0 -17 -17 -17h-512q-17 0 -17 17v632q0 17 17 17h307v-205h222v-444zM307 452.5q0 -10.5 8 -18t18 -7.5h358q10 0 18 7.5t8 18t-8 18t-18 7.5h-358q-10 0 -18 -7.5t-8 -18zM691 324h-358q-10 0 -18 -7.5t-8 -18
t8 -18t18 -7.5h358q10 0 18 7.5t8 18t-8 18t-18 7.5z" />
    <glyph glyph-name="cloudfog-xitongpeizhi" unicode="&#xe658;" 
d="M891 468l-94 22q0 2 -2 3l53 84l9 14l-10 10l-108 104l-10 10l-12 -8l-79 -50q-1 1 -3.5 2t-3.5 1l-20 96l-3 15h-181l-4 -13l-22 -92l-85 51l-12 7l-10 -11l-108 -107l-10 -10l8 -14l52 -77q0 -2 -2 -3l-99 -24l-16 -2v-177l16 -4l94 -19q0 -1 1 -1l-54 -87l-9 -12
l10 -10l106 -105l11 -10l11 9l84 53l24 -98l3 -13h181l4 15l19 91h1l91 -53l12 -7l10 10l106 104l12 10l-9 14l-53 80l99 21l16 3v178h-14zM848 321l-89 -17l-8 -2l-3 -8q-1 -3 -3.5 -8t-3.5 -8l-5 -8l5 -9l47 -72l-80 -78l-80 48l-8 3l-9 -3q-3 -1 -9 -3.5t-8 -3.5l-10 -4
l-2 -10l-17 -82h-114l-23 87l-1 9l-9 3q-2 1 -7.5 3.5t-7.5 3.5l-9 4l-8 -6l-75 -47l-81 78l50 79l5 8l-3 9q-5 8 -7 18l-4 11h-12l-83 17v111l89 20l8 2l3 8q1 4 9 19l5 9l-5 8l-44 69l80 78l77 -46l8 -5l9 3l15 5l9 4l1 8l21 84h114l19 -85l2 -11l8 -3q4 -2 11.5 -4.5
t10.5 -4.5l9 -3l8 5l70 45l82 -79l-47 -75l-6 -9l4 -8q3 -5 7 -19l3 -8l10 -2l84 -21v-107h-2zM512 550q-68 0 -117 -48.5t-49 -117.5t48.5 -117.5t117.5 -48.5q68 0 117 48.5t49 117.5t-49 117.5t-117 48.5zM512 268q-48 0 -82 34t-34 82q0 47 34.5 81.5t81.5 34.5
q48 0 82 -34t34 -82t-34 -82t-82 -34z" />
    <glyph glyph-name="cloudfog_chakan" unicode="&#xe659;" 
d="M512 728q-172 0 -311 -95t-201 -249q62 -154 201 -249t311 -95t311 95t201 249q-62 154 -201 249t-311 95zM512 107q-142 0 -259.5 76t-175.5 201q58 125 175.5 201t259.5 76t259.5 -76t175.5 -201q-58 -125 -175.5 -201t-259.5 -76zM512 568q-77 0 -130.5 -53.5
t-53.5 -130.5t53.5 -130.5t130.5 -53.5t130.5 53.5t53.5 130.5t-53.5 130.5t-130.5 53.5zM512 270q-47 0 -80.5 33.5t-33.5 80.5t33.5 80.5t80.5 33.5t80.5 -33.5t33.5 -80.5t-33.5 -80.5t-80.5 -33.5z" />
    <glyph glyph-name="cloudfog_yonghuming" unicode="&#xe65a;" 
d="M847 551.5q0 91.5 -44.5 168t-121 120.5t-167 44t-168 -44.5t-122.5 -121t-45 -166.5q0 -93 46 -169.5t124 -119.5q-108 -42 -182.5 -130.5t-96.5 -204.5q-4 -15 4.5 -29t25.5 -15h7q30 0 37 30q25 130 127.5 215.5t235.5 89.5h7q91 -1 167.5 43t121 121t44.5 168.5z
M251 552q0 108 75.5 183t185.5 75t185.5 -75t75.5 -183q0 -107 -75 -182t-181 -77h-12q-106 2 -180 77t-74 182zM756 214q-14 9 -29 5.5t-22 -17.5q-9 -13 -5.5 -28.5t17.5 -22.5q65 -44 107 -105t56 -132q7 -30 37 -30h7q14 3 23 15.5t7 28.5q-17 85 -68 158.5t-130 127.5z
" />
    <glyph glyph-name="cloudfog_koulingma" unicode="&#xe65b;" 
d="M524 337q-35 0 -59.5 -24t-24.5 -59q0 -24 12.5 -44t33.5 -31v-91q0 -14 10.5 -24t24.5 -10t24.5 10t10.5 24v91q21 11 34 31t13 44q3 33 -20.5 58t-58.5 25zM870 503h-661v44v2v26q25 104 109.5 170.5t193.5 66.5q84 0 155.5 -42t112.5 -111q3 -9 12.5 -15t19.5 -6
q16 0 25.5 10t9.5 25q0 10 -7 21q-50 87 -136.5 138.5t-191.5 51.5q-137 0 -241.5 -84.5t-130.5 -215.5v-84q-24 -5 -40 -24.5t-16 -44.5v-478q0 -29 21 -50.5t51 -21.5h714q30 0 51.5 21.5t21.5 50.5v478q-2 30 -22.5 51t-50.5 21zM870 2q0 -29 -9 -37.5t-37 -8.5h-622
q-29 0 -37.5 9t-8.5 37v382q0 30 8.5 38.5t37.5 8.5h620q29 0 37.5 -9.5t8.5 -37.5v-382h2z" />
    <glyph glyph-name="guanliyuanduan_tianjia" unicode="&#xe65c;" 
d="M1024 282h-410v-410h-204v410h-410v204h410v410h204v-410h410v-204z" />
    <glyph glyph-name="cloudfog_yuandaimabeifen" unicode="&#xe65d;" 
d="M512 -128q-139 0 -257 68.5t-186.5 186.5t-68.5 257t68.5 257t186.5 186.5t257 68.5t257 -68.5t186.5 -186.5t68.5 -257t-68.5 -257t-186.5 -186.5t-257 -68.5zM806 602q0 21 -15 36t-36 15h-486q-21 0 -36 -15t-15 -36v-436q0 -21 15 -36t36 -15h486q21 0 36 15t15 36
v436zM269 602h486v-436h-486v436zM566 289l27 -27l107 108l-107 134l-27 -27l80 -107zM512 236l54 295h-54l-54 -295h54zM431 262l27 27l-80 81l80 107l-27 27l-107 -134z" />
    <glyph glyph-name="cloudfog_shejiwenjian" unicode="&#xe65e;" 
d="M511 -128q-104 0 -198.5 40.5t-163 109t-109 163t-40.5 198.5t40.5 199t109 164t163 109.5t198.5 40.5t199 -40.5t163.5 -109.5t109 -163.5t40.5 -198t-40.5 -198.5t-109 -163.5t-163.5 -109.5t-199 -41zM805 602q0 21 -15 36t-36 15h-486q-21 0 -36 -15t-15 -36v-435
q0 -21 15 -36t36 -15h486q21 0 36 15t15 36v435zM268 602h486v-384h-486v384zM332 282h346q10 0 17.5 7.5t7.5 18t-7.5 18.5t-17.5 8h-346q-10 0 -17.5 -8t-7.5 -18.5t7.5 -18t17.5 -7.5zM332 385h346q10 0 17.5 7.5t7.5 18t-7.5 18t-17.5 7.5h-346q-10 0 -17.5 -7.5
t-7.5 -18t7.5 -18t17.5 -7.5zM332 487h346q10 0 17.5 7.5t7.5 18t-7.5 18t-17.5 7.5h-346q-10 0 -17.5 -7.5t-7.5 -18.5t7.5 -18t17.5 -7zM588 142h-153v38h153v-38z" />
    <glyph glyph-name="cloudfog_quanbu" unicode="&#xe65f;" 
d="M512 896q-139 0 -257 -68.5t-186.5 -186.5t-68.5 -257t68.5 -257t186.5 -186.5t257 -68.5t257 68.5t186.5 186.5t68.5 257t-68.5 257t-186.5 186.5t-257 68.5zM553 613h215q13 0 22.5 -9t9.5 -22v-30h-268q-11 14 -11 30q0 13 9.5 22t22.5 9zM826 180q0 -27 -20 -47
t-48 -20h-492q-28 0 -48 20t-20 47v384q0 27 19.5 46.5t46.5 19.5h207l47 -109h241q28 0 48 -20t20 -48zM758 468h-241q-16 0 -29.5 9t-19.5 23l-33 77h-171q-5 0 -8.5 -3t-3.5 -8v-386q0 -6 4.5 -10.5t11.5 -4.5h491q6 0 10.5 4.5t4.5 10.5v273q-2 15 -16 15z" />
    <glyph glyph-name="cloudfog_qita" unicode="&#xe660;" 
d="M512 896q-139 0 -257 -68.5t-186.5 -186.5t-68.5 -257t68.5 -257t186.5 -186.5t257 -68.5t257 68.5t186.5 186.5t68.5 257t-68.5 257t-186.5 186.5t-257 68.5zM262.5 312q-29.5 0 -50.5 21t-21 51t21 51t50.5 21t50.5 -21t21 -51t-21 -51t-50.5 -21zM512 312
q-30 0 -51 21t-21 51t21 51t51 21t51 -21t21 -51t-21 -51t-51 -21zM761.5 312q-29.5 0 -50.5 21t-21 51t21 51t50.5 21t50.5 -21t21 -51t-21 -51t-50.5 -21z" />
    <glyph glyph-name="cloudfog_wendang" unicode="&#xe661;" 
d="M512 896q-139 0 -257 -68.5t-186.5 -186.5t-68.5 -257t68.5 -257t186.5 -186.5t257 -68.5t257 68.5t186.5 186.5t68.5 257t-68.5 257t-186.5 186.5t-257 68.5zM795 146q0 -19 -13.5 -32.5t-32.5 -13.5h-441q-19 0 -32.5 13.5t-13.5 32.5v498q0 19 13.5 32.5t32.5 13.5
h332q11 0 22 -6l120 -98q13 -10 13 -25v-415zM630 557v86h-320v-496h438v406h-114q-4 0 -4 4zM388 532h143q11 0 19 -7.5t8 -18.5q0 -12 -7.5 -19.5t-19.5 -7.5h-143q-11 0 -19 7.5t-8 19.5q0 11 7.5 18.5t19.5 7.5zM668 225h-280q-11 0 -19 8t-8 19q0 12 7.5 19.5t19.5 7.5
h280q11 0 19 -8t8 -19t-8 -19t-19 -8zM666 404h2q11 0 19 -7.5t8 -18.5q0 -12 -7.5 -19.5t-19.5 -7.5h-280q-11 0 -19 7.5t-8 19.5q0 11 7.5 18.5t19.5 7.5h278z" />
    <glyph glyph-name="cloudfog_tupian" unicode="&#xe662;" 
d="M512 896q-139 0 -257 -68.5t-186.5 -186.5t-68.5 -257t68.5 -257t186.5 -186.5t257 -68.5t257 68.5t186.5 186.5t68.5 257t-68.5 257t-186.5 186.5t-257 68.5zM808 197q0 -31 -22 -52.5t-53 -21.5h-445q-31 0 -52.5 21.5t-21.5 52.5v371q0 31 21.5 53t52.5 22h445
q31 0 53 -22t22 -53v-371zM727 600h-431q-17 0 -26.5 -9.5t-9.5 -26.5v-320l123 148q10 10 22.5 10t20.5 -10l105 -133l101 101q11 11 25 10t23 -14l85 -110v318q-2 14 -13.5 25t-24.5 11zM655 454q-4 -10 -11 -17.5t-18 -11.5q-10 -4 -22 -4q-10 0 -22 4q-10 4 -17.5 11.5
t-11.5 17.5t-4 22q0 10 4 22q4 11 11.5 18t17.5 11t22 4q10 0 22 -4q11 -4 18 -11t11 -18q4 -10 4 -22q0 -10 -4 -22z" />
    <glyph glyph-name="cloudfog_shipin" unicode="&#xe663;" horiz-adv-x="1025" 
d="M264 603v-438h496v438h-496zM435 280v208l179 -104zM513 896q-104 0 -199 -40.5t-163.5 -109t-109 -163.5t-40.5 -199t40.5 -199t109 -163.5t163.5 -109t199 -40.5t199 40.5t163.5 109t109 163.5t40.5 199t-40.5 199t-109 163.5t-163.5 109t-199 40.5zM808 164
q0 -19 -13.5 -32.5t-32.5 -13.5h-497q-19 0 -32.5 13.5t-13.5 32.5v440q0 19 13.5 32.5t32.5 13.5h495q20 0 33 -13.5t13 -32.5v-440h2z" />
    <glyph glyph-name="cloudfog_yinle" unicode="&#xe664;" 
d="M512 896q139 0 257 -68.5t186.5 -186.5t68.5 -257t-68.5 -257t-186.5 -186.5t-257 -68.5t-257 68.5t-186.5 186.5t-68.5 257t68.5 257t186.5 186.5t257 68.5zM741 676h-371q-16 -3 -26 -16t-10 -30v-400q-23 25 -56 25q-40 0 -68 -28t-28 -68q0 -39 28 -66.5t68 -27.5
q39 0 70.5 25.5t35.5 65.5v309h356v-194q-18 21 -54 21q-40 0 -69 -28t-29 -67t29 -67t69 -28q39 0 72 28t32 67v434q1 21 -14.5 33t-34.5 12zM740 503h-356v93q0 4 4 4l348 2h1q2 0 3 -1.5t1 -2.5v-36z" />
    <glyph glyph-name="shangchuantupian" unicode="&#xe665;" 
d="M512 384zM0 384q0 -139 68.5 -257t186.5 -186.5t257 -68.5t257 68.5t186.5 186.5t68.5 257t-68.5 257t-186.5 186.5t-257 68.5t-257 -68.5t-186.5 -186.5t-68.5 -257zM562 459q0 21 15 35.5t36 14.5t35.5 -14.5t14.5 -35.5t-14.5 -35t-35.5 -14q-21 -1 -36 13.5t-15 35.5
zM337 234l100 176l100 -150l75 75l75 -100h-350v-1zM762 584v-425l-21 -25h-451l-28 25v450l24 25h452l24 -25v-25h-450v-400h400v400h50z" />
    <glyph glyph-name="tubiao-" unicode="&#xe666;" 
d="M683 794v68h-69v-68h-204v68h-69v-68h-273v-888h888v888h-273zM887 -26h-750v751h204v-68h69v68h204v-68h69v68h204v-751zM273 521h478v-69h-478v69zM273 384h478v-68h-478v68zM273 247h478v-68h-478v68z" />
    <glyph glyph-name="tubiao_zhankai" unicode="&#xe667;" 
d="M863 33h-702l702 702v-702z" />
    <glyph glyph-name="tubiao_shouqi" unicode="&#xe668;" 
d="M256 876v-984l512 492zM295 778l414 -394l-414 -402v796z" />
    <glyph glyph-name="icon_youxiang" unicode="&#xe669;" 
d="M831 676h-609q-49 0 -82.5 -33.5t-33.5 -81.5v-418q0 -47 34 -80.5t82 -33.5h609q49 0 82.5 33.5t33.5 80.5v418q0 48 -33.5 81.5t-82.5 33.5zM162 560l367 -282l321 251l-36 43l-285 -224l-340 261q16 11 33 11h609q25 0 42.5 -17t17.5 -42v-418q0 -24 -17.5 -41
t-42.5 -17h-609q-25 0 -42.5 17t-17.5 41v417z" />
    <glyph glyph-name="icon_dianhua" unicode="&#xe66a;" 
d="M708 222q-66 61 -114 61q-22 0 -41 -13l-26 -19q-30 8 -59.5 33.5t-51.5 63.5q-47 84 -29 145l29 14q64 29 40 148q-6 27 -16.5 54.5t-27 56.5t-40.5 47t-51 18q-9 0 -22 -3l-52 -17q-34 -12 -58 -38.5t-32 -62.5q-21 -102 4 -221.5t92 -234.5q66 -115 157 -196.5
t189 -113.5q18 -7 43 -7q53 0 90 34l41 36q41 36 15 104q-22 58 -80 111zM346 536l-1 -4q-21 -42 -14 -98t39 -110q32 -55 77 -88.5t92 -37.5h5l43 31q4 3 10 3q30 0 77.5 -46.5t64.5 -89.5q11 -34 -2 -45l-41 -36q-15 -14 -37 -18.5t-43 1.5q-89 30 -171.5 104.5
t-145.5 182.5q-62 108 -86 217.5t-5 200.5q4 21 19 37.5t36 24.5l51 17q3 -5 7 -5q21 0 45.5 -40.5t36.5 -93.5q8 -40 4.5 -61t-13.5 -26zM893 597q-37 73 -98 124.5t-138 77.5q-10 3 -20 -2t-14 -15t1.5 -20.5t15.5 -13.5q67 -22 120 -67t83 -108q66 -129 21 -268
q-3 -11 1 -20q6 -11 16 -14q3 -1 8 -1q20 0 26 18q27 77 21 157t-43 152zM616 672q-11 4 -20.5 -1t-13.5 -16q-3 -11 2 -20q5 -11 15 -14q88 -30 126 -109q40 -82 14 -166q-4 -10 1.5 -20t15.5 -14q3 -1 9 -1q20 0 25 18q35 108 -15 209q-50 100 -159 134zM558 495
q34 -12 50 -43.5t5 -64.5q-4 -10 1 -20t16 -14q3 -1 8 -1q21 0 26 18q18 55 -8 106.5t-81 69.5q-10 4 -20 -1.5t-14 -15.5t1.5 -20t15.5 -14z" />
    <glyph glyph-name="icon_yincangmima" unicode="&#xe66b;" 
d="M512 728q-172 0 -311 -95t-201 -249q62 -154 201 -249t311 -95t311 95t201 249q-62 154 -201 249t-311 95zM512 179q-85 0 -145 60.5t-60 144.5q0 85 60.5 145t144.5 60q85 0 145 -60.5t60 -144.5q0 -86 -59.5 -145.5t-145.5 -59.5zM403 384v0q0 -45 32 -77t77 -32t77 32
t32 77v0q0 45 -32 77t-77 32t-77 -32t-32 -77v0z" />
    <glyph glyph-name="icon_chenggong" unicode="&#xe66c;" 
d="M508 -128q-104 0 -198 40t-162 108t-108 162t-40 198t40 198t108 162t162 108t198 40t198 -40t162 -108t108 -162t40 -198t-40 -198t-108 -162t-162 -108t-198 -40zM789 611l-355 -372l-211 219l-82 -78l289 -289l74 74l364 364z" />
    <glyph glyph-name="icon_shibai" unicode="&#xe66d;" 
d="M512 -128q-140 0 -257.5 68.5t-186 186t-68.5 257.5t68.5 257.5t186 186t257.5 68.5t257.5 -68.5t186 -186t68.5 -257.5t-68.5 -257.5t-186 -186t-257.5 -68.5zM803 593l-82 82l-209 -208l-209 208l-82 -82l208 -209l-208 -209l82 -82l209 208l209 -208l82 82l-208 209z
" />
    <glyph glyph-name="icon_yunxiazai" unicode="&#xe66e;" 
d="M759 475q-13 95 -83 159t-164 64t-164 -64t-83 -159q-77 -5 -130.5 -64t-53.5 -139q0 -83 58 -142.5t138 -59.5h472q81 2 137.5 60.5t56.5 141.5q0 80 -53.5 139t-130.5 64zM505 130l-172 198h116v184h112v-184h116z" />
    <glyph glyph-name="icon_wenjian-gengduo" unicode="&#xe66f;" 
d="M782 299q-38 0 -64.5 24.5t-26.5 60.5t26.5 60.5t64 24.5t64 -24.5t26.5 -60.5q-1 -36 -27.5 -60.5t-62.5 -24.5zM512 299q-37 0 -63.5 24.5t-26.5 60.5t26.5 60.5t63.5 24.5t63.5 -24.5t26.5 -60.5t-26.5 -60.5t-63.5 -24.5zM244 299q-37 0 -63.5 24.5t-26.5 60.5
t26 60.5t62.5 24.5t63.5 -25t27 -60.5t-26.5 -60t-62.5 -24.5z" />
    <glyph glyph-name="icon_xialaguanbi" unicode="&#xe670;" 
d="M973 565l-429 -417q0 -2 -2 -4t-2 -4q-9 -9 -22 -11.5t-22 3.5q-8 0 -16 8q-1 1 -3 2.5t-3 2.5t-1 3l-422 421q-12 12 -12 29.5t12 29.5t29.5 12t29.5 -12l398 -398l406 394q12 12 29.5 12t29.5 -12t12 -29.5t-12 -29.5z" />
    <glyph glyph-name="icon_xiala" unicode="&#xe671;" 
d="M973 144q-12 -12 -29.5 -12t-29.5 12l-406 394l-398 -398q-12 -12 -29.5 -12t-29.5 12t-12 29.5t12 29.5l422 421q0 2 2 4t2 4q7 8 15 8q24 12 44 -8q4 -4 4 -8l429 -417q14 -12 15 -30t-11 -29z" />
    <glyph glyph-name="icon_bianjicaozuo" unicode="&#xe672;" 
d="M0 -128v1024h717v-68h-649v-888h888v649h68v-717h-1024zM273 247l683 649h68v-68l-614 -581h-137z" />
    <glyph glyph-name="dir" unicode="&#xe673;" 
d="M953 -45h-882v810h362l61 -77l459 1v-734zM962 -54h-900v828h374l62 -78l464 4v-754zM79 -36h867v717l-455 -4l-62 78h-350v-791zM71 518h884v-17h-884v17zM945 518v164l-456 -3l-60 76h-351v-237h867z" />
    <glyph glyph-name="c_exe" unicode="&#xe675;" 
d="M64 589h898v-708h-898v708zM971 -128h-916v726h916v-726zM72 -110h881v690h-881v-690zM803 674v222h-748v-350h916v128h-168zM826 896v-201h145zM164 615v216h156v-25h-128v-65h119v-25h-119v-72h133v-25h-161v-4zM343 615l82 112l-72 104h34l38 -55q12 -13 18 -27
q2 3 8 11.5t10 13.5l42 57h32l-76 -103l81 -113h-35l-55 76q-2 2 -5 7.5t-4 6.5q-8 -10 -10 -16l-55 -74h-33zM565 615v216h155v-25h-127v-65h119v-25h-119v-72h133v-25h-161v-4zM712 262h-52q-5 16 -12 30l37 37q15 15 0 30l-34 34q-15 15 -30 0l-37 -37q-8 5 -30 12v51
q0 9 -6 15t-15 6h-47q-9 0 -15.5 -6t-6.5 -15v-53q-16 -5 -30 -12l-37 37q-15 15 -30 0l-33 -33q-15 -15 0 -30l37 -38q-6 -8 -13 -30h-51q-8 0 -14.5 -6t-6.5 -15v-47q0 -9 6 -15.5t15 -6.5h51q6 -16 13 -30l-37 -37q-15 -15 0 -30l33 -33q15 -15 30 0l37 37q9 -5 30 -13
v-51q0 -8 6.5 -14.5t15.5 -6.5h47q8 0 14.5 6t6.5 15v51q16 6 30 13l37 -37q15 -15 30 0l34 33q15 15 0 30l-37 37q5 9 12 30h52q8 0 14.5 6.5t6.5 15.5v51q0 8 -6 13.5t-15 5.5zM512 130q-37 0 -62.5 25.5t-25.5 62.5t25.5 62.5t62.5 25.5t62.5 -25.5t25.5 -62.5
q0 -36 -25.5 -62t-62.5 -26z" />
    <glyph glyph-name="icon-" unicode="&#xe677;" 
d="M824 896v-201h145zM803 896h-748v-1024h916v802h-168v222zM577 831h27v-101l100 101h38l-85 -83l88 -120h-35l-73 102l-33 -32v-70h-27v203zM374 831h29l105 -159v159h27v-203h-28l-106 159v-159h-27v203zM300 831h27v-203h-27v203zM138 831h26v-179h101v-24h-127v203z
M952 546v-656h-880v656h880zM480 163q11 0 16 7q7 7 7 16.5t-7 15.5q-18 19 -18 44.5t18 43.5l85 85q18 18 44 18q24 0 44 -18q19 -18 19 -44t-19 -44l-39 -39q-6 -7 -6 -16t6.5 -15.5t15.5 -6.5t16 6l39 39q32 32 32 76t-32 76t-76 32q-47 0 -76 -32l-85 -85
q-31 -32 -31 -76t31 -76q7 -7 16 -7zM399 -3q47 0 76 32l85 85q31 32 31 76t-31 76q-7 6 -16 6t-16 -6.5t-7 -15.5t7 -16q18 -19 18 -44.5t-18 -43.5l-85 -85q-18 -18 -44 -18q-24 0 -44 18q-19 18 -19 44t19 44l39 39q6 7 6 16t-6.5 15.5t-15.5 6.5t-16 -6l-39 -39
q-32 -32 -32 -76t32 -76t76 -32z" />
  </font>
</defs>
</svg>
